<?xml version="1.0" standalone="no"?>
<!DOCTYPE svg PUBLIC "-//W3C//DTD SVG 20010904//EN"
 "http://www.w3.org/TR/2001/REC-SVG-20010904/DTD/svg10.dtd">
<svg version="1.0" xmlns="http://www.w3.org/2000/svg"
 width="700.000000pt" height="700.000000pt" viewBox="0 0 700.000000 700.000000"
 preserveAspectRatio="xMidYMid meet">
<metadata>
Created by potrace 1.14, written by Peter Selinger 2001-2017
</metadata>
<g transform="translate(0.000000,700.000000) scale(0.100000,-0.100000)"
fill="#000000" stroke="none">
<path d="M3484 6161 c-5 -5 -38 -24 -74 -43 -36 -20 -202 -112 -370 -205 -168
-93 -330 -183 -360 -200 -30 -16 -174 -96 -318 -177 -145 -81 -285 -158 -310
-172 -26 -14 -54 -29 -62 -34 -14 -9 -353 -197 -480 -267 -30 -16 -91 -50
-135 -75 -44 -25 -105 -58 -135 -75 -30 -16 -111 -61 -180 -100 -69 -38 -150
-83 -180 -100 -139 -76 -567 -317 -583 -328 -16 -11 -10 -17 60 -55 88 -49 75
-42 353 -197 113 -64 228 -128 255 -143 67 -37 118 -66 158 -88 17 -10 59 -34
92 -52 120 -65 127 -71 120 -94 -68 -233 -128 -530 -149 -741 -3 -27 -8 -79
-12 -114 -10 -103 -7 -486 6 -616 18 -188 72 -512 88 -526 4 -4 41 -9 82 -13
41 -3 86 -8 100 -10 14 -2 54 -7 90 -11 121 -11 412 -67 478 -92 l23 -9 2
-264 c2 -249 4 -268 24 -312 104 -227 426 -226 531 2 23 50 25 66 26 201 l1
148 70 -38 c203 -108 474 -302 639 -456 6 -6 46 -41 89 -78 l79 -68 76 68 c42
37 86 76 97 86 272 249 608 460 959 601 319 129 616 197 1016 232 86 7 95 12
98 51 1 15 13 89 26 163 98 538 77 1075 -61 1610 -25 96 -46 184 -47 194 -1
15 67 57 324 200 179 100 350 196 380 213 51 28 124 69 289 161 l63 35 -23 18
c-13 10 -27 19 -32 19 -4 0 -96 50 -205 111 -151 86 -2288 1275 -2572 1432
-30 16 -89 49 -130 72 -179 101 -267 144 -276 136z m1028 -1226 c843 -468
1004 -561 990 -570 -9 -7 -53 -31 -97 -55 -44 -23 -134 -73 -200 -110 -66 -37
-145 -80 -175 -97 -52 -29 -645 -358 -720 -400 -419 -235 -800 -443 -809 -443
-12 0 -349 184 -363 198 -6 6 122 80 426 246 138 75 182 119 212 209 20 61 15
156 -12 213 -47 99 -156 167 -267 165 -49 0 -127 -21 -151 -40 -6 -4 -40 -24
-76 -43 -36 -20 -184 -102 -330 -183 -146 -81 -290 -161 -320 -177 -30 -17
-59 -34 -65 -39 -5 -5 -16 -9 -24 -9 -11 0 -896 484 -1023 559 l-27 17 1007
560 c554 308 1009 560 1012 559 3 -1 458 -253 1012 -560z m-2557 -1496 c41
-22 78 -45 81 -51 5 -7 8 -879 4 -1124 l0 -31 -78 18 c-77 18 -124 27 -152 28
-33 2 -42 19 -48 97 -9 105 -8 409 1 511 17 197 67 479 102 581 6 17 7 17 90
-29z m3202 -55 c32 -127 62 -315 78 -478 17 -181 11 -594 -10 -614 -2 -2 -66
-17 -142 -33 -561 -115 -1080 -347 -1522 -681 -36 -27 -67 -45 -70 -41 -18 24
-244 180 -381 263 -103 62 -323 175 -427 220 -29 12 -54 25 -54 29 -1 3 -2
232 -3 509 -1 493 1 520 30 493 5 -5 35 -23 67 -40 97 -53 162 -88 475 -263
l302 -168 538 298 c295 165 555 309 577 322 22 12 74 41 115 63 41 23 145 80
230 129 85 48 159 86 165 84 5 -1 19 -43 32 -92z"/>
</g>
</svg>
