<?xml version="1.0" standalone="no"?>
<!DOCTYPE svg PUBLIC "-//W3C//DTD SVG 20010904//EN"
 "http://www.w3.org/TR/2001/REC-SVG-20010904/DTD/svg10.dtd">
<svg version="1.0" xmlns="http://www.w3.org/2000/svg"
 width="700.000000pt" height="700.000000pt" viewBox="0 0 700.000000 700.000000"
 preserveAspectRatio="xMidYMid meet">
<metadata>
Created by potrace 1.14, written by Peter Selinger 2001-2017
</metadata>
<g transform="translate(0.000000,700.000000) scale(0.100000,-0.100000)"
fill="#000000" stroke="none">
<path d="M3280 6993 c-19 -1 -87 -8 -150 -14 -947 -90 -1846 -599 -2429 -1376
-140 -187 -217 -310 -326 -528 -444 -880 -496 -1900 -143 -2833 61 -161 206
-454 298 -600 157 -251 395 -535 609 -729 843 -761 1966 -1066 3089 -837 282
58 568 158 847 299 216 109 340 185 528 326 642 482 1098 1168 1291 1944 75
299 101 519 101 855 0 259 -10 379 -46 593 -93 551 -318 1072 -658 1522 -666
880 -1709 1393 -2811 1383 -91 -1 -181 -3 -200 -5z m-469 -2212 c52 -12 131
-32 175 -46 82 -27 254 -104 254 -114 0 -16 -119 -336 -124 -334 -4 1 -55 20
-113 43 -167 66 -278 91 -428 97 -220 9 -382 -24 -558 -114 -141 -73 -274
-209 -349 -358 -95 -187 -124 -494 -69 -710 42 -162 143 -330 262 -434 120
-104 295 -183 471 -211 113 -18 371 -8 471 19 43 11 98 29 122 40 l45 20 0
230 0 231 -245 0 -245 0 0 180 0 180 435 0 435 0 0 -513 0 -514 -22 -20 c-101
-94 -455 -208 -722 -233 -182 -18 -470 21 -632 85 -427 168 -693 486 -771 919
-22 123 -21 358 2 501 91 574 490 973 1070 1071 117 20 411 11 536 -15z m2100
-21 c348 -71 556 -243 649 -535 28 -89 38 -290 20 -403 -16 -100 -59 -227
-101 -299 -44 -74 -179 -211 -246 -250 l-53 -30 306 -489 c169 -269 309 -494
311 -501 4 -10 -40 -13 -209 -13 l-214 0 -291 453 -290 452 -222 3 -221 2 0
-455 0 -455 -185 0 -185 0 0 1270 0 1270 416 0 c378 0 425 -2 515 -20z"/>
<path d="M4350 3964 l0 -456 253 4 c286 5 316 11 422 83 248 170 237 596 -20
757 -97 60 -146 68 -417 68 l-238 0 0 -456z"/>
</g>
</svg>
